<?xml version="1.0" encoding="UTF-8" standalone="no"?> <svg xmlns="http://www.w3.org/2000/svg" viewBox="0 0 64 64"><g id="Layer_25" data-name="Layer 25"><path d="M25,54.92a1,1,0,0,0,.86,0,1,1,0,0,0,.54-.68l5.35-23.86a.21.21,0,0,1,.23-.18.2.2,0,0,1,.22.17l1.33,6a.64.64,0,0,0,0,.07l4,17.83a1,1,0,0,0,.54.68,1,1,0,0,0,.44.1.94.94,0,0,0,.43-.1,17.25,17.25,0,0,0,9.65-15.61c0-9-7-30.33-16.6-30.33S15.31,30.26,15.31,39.31A17.27,17.27,0,0,0,25,54.92Zm7-43.94c7.69,0,14.6,19.24,14.6,28.33a15.33,15.33,0,0,1-7.39,13.21l-1.61-7.21,4-6.85a1,1,0,0,0-.36-1.37,1,1,0,0,0-1.37.37l-2.86,5-1.37-6.14,6-10.29a1,1,0,1,0-1.73-1L34.89,33.4l-.77-3.46a2.24,2.24,0,0,0-4.36,0L29,33.46,24.08,25a1,1,0,0,0-1.36-.37A1,1,0,0,0,22.35,26l6,10.35L27,42.45l-2.86-5a1,1,0,1,0-1.74,1l4,6.87L24.7,52.52a15.35,15.35,0,0,1-7.39-13.21C17.31,30.46,24.38,11,31.94,11Z"/></g></svg>